{"glyphs":{"0":{"ha":396,"x_min":0,"x_max":0,"o":""},"1":{"ha":393,"x_min":0,"x_max":0,"o":""},"2":{"ha":375,"x_min":0,"x_max":0,"o":""},"3":{"ha":471,"x_min":0,"x_max":0,"o":""},"4":{"ha":343,"x_min":0,"x_max":0,"o":""},"5":{"ha":392,"x_min":0,"x_max":0,"o":""},"6":{"ha":313,"x_min":0,"x_max":0,"o":""},"7":{"ha":369,"x_min":0,"x_max":0,"o":""},"8":{"ha":438,"x_min":0,"x_max":0,"o":""},"9":{"ha":450,"x_min":0,"x_max":0,"o":""},"\u0000":{"ha":0,"x_min":0,"x_max":0,"o":""}," ":{"ha":494,"x_min":0,"x_max":0,"o":""},"!":{"ha":425,"x_min":0,"x_max":0,"o":""},"\"":{"ha":181,"x_min":0,"x_max":0,"o":""},"#":{"ha":560,"x_min":0,"x_max":0,"o":""},"$":{"ha":529,"x_min":0,"x_max":0,"o":""},"%":{"ha":542,"x_min":0,"x_max":0,"o":""},"&":{"ha":525,"x_min":0,"x_max":0,"o":""},"'":{"ha":67,"x_min":0,"x_max":0,"o":""},"(":{"ha":425,"x_min":0,"x_max":0,"o":""},")":{"ha":424,"x_min":0,"x_max":0,"o":""},"*":{"ha":213,"x_min":0,"x_max":0,"o":""},"+":{"ha":531,"x_min":0,"x_max":0,"o":""},",":{"ha":264,"x_min":0,"x_max":0,"o":""},"-":{"ha":407,"x_min":0,"x_max":0,"o":""},".":{"ha":238,"x_min":0,"x_max":0,"o":""},"/":{"ha":806,"x_min":0,"x_max":0,"o":""},":":{"ha":319,"x_min":0,"x_max":0,"o":""},";":{"ha":369,"x_min":0,"x_max":0,"o":""},"<":{"ha":429,"x_min":0,"x_max":0,"o":""},"=":{"ha":422,"x_min":0,"x_max":0,"o":""},">":{"ha":429,"x_min":0,"x_max":0,"o":""},"?":{"ha":561,"x_min":0,"x_max":0,"o":""},"@":{"ha":635,"x_min":0,"x_max":0,"o":""},"A":{"ha":950,"x_min":-153,"x_max":1056,"o":"m 861 168 q 828 175 856 172 q 756 179 800 178 q 699 65 729 124 q 640 -50 669 6 q 579 -155 610 -106 q 522 -243 549 -204 q 471 -306 494 -282 q 431 -335 447 -331 q 428 -335 429 -335 q 426 -336 428 -336 q 413 -324 415 -336 q 412 -321 413 -322 q 411 -318 411 -319 q 422 -306 411 -308 q 480 -253 444 -300 q 557 -135 515 -206 q 642 18 599 -65 q 724 181 686 101 q 647 182 688 182 q 560 182 606 182 q 432 182 497 182 q 301 181 367 182 q 185 76 242 125 q 76 -7 128 28 q -23 -62 24 -42 q -108 -82 -69 -82 q -142 -78 -128 -82 q -153 -64 -153 -75 q -152 -62 -153 -62 q -151 -60 -151 -61 q -136 -47 -149 -47 q -134 -48 -135 -47 q -132 -49 -133 -49 q -104 -53 -119 -53 q -31 -35 -71 -53 q 56 13 10 -18 q 151 87 101 44 q 256 179 201 129 q 95 176 175 178 q -65 175 15 175 q -81 192 -81 175 q -65 207 -81 207 q 111 208 24 207 q 288 210 199 208 q 490 412 386 304 q 691 617 593 519 q 877 792 789 715 q 1033 901 965 869 q 1039 903 1035 903 q 1054 894 1050 903 q 1056 888 1056 892 q 1054 881 1056 883 q 1043 853 1050 869 q 1026 813 1036 836 q 978 694 1007 764 q 916 544 950 625 q 844 375 882 463 q 767 201 807 288 q 844 194 814 199 q 883 183 875 190 q 889 172 889 178 q 885 163 889 167 q 879 160 882 160 q 861 168 872 160 m 332 210 q 547 208 440 210 q 733 203 653 207 q 813 378 774 289 q 885 549 851 467 q 949 703 919 632 q 997 825 978 775 l 1010 853 q 871 744 950 817 q 703 583 792 672 q 520 397 615 494 q 332 210 425 299 z "},"B":{"ha":836,"x_min":-235,"x_max":986,"o":"m 982 638 q 940 535 972 582 q 862 451 908 489 q 758 382 815 413 q 642 328 701 351 q 526 286 583 304 q 422 256 469 268 q 494 230 454 246 q 569 190 533 214 q 628 133 604 165 q 651 56 651 100 q 646 14 651 32 q 603 -54 636 -24 q 524 -108 571 -85 q 419 -149 478 -132 q 301 -178 361 -167 q 181 -196 240 -190 q 72 -201 122 -201 q 70 -214 71 -208 q 69 -225 69 -219 q 65 -236 69 -232 q 53 -240 60 -240 q 39 -226 39 -237 l 39 -224 q 40 -212 39 -218 q 40 -200 40 -207 q 0 -197 18 -200 q -33 -192 -18 -194 q -46 -176 -46 -189 l -46 -174 q -29 -161 -40 -161 l -26 -161 q 44 -169 1 -168 q 92 53 58 -65 q 174 291 126 172 q 276 520 221 410 q 390 717 332 631 q 403 724 394 724 q 411 721 406 724 q 418 707 418 714 q 415 699 418 704 q 304 506 360 614 q 203 282 249 399 q 123 49 157 165 q 75 -169 89 -68 q 178 -164 122 -169 q 292 -148 235 -158 q 403 -122 349 -137 q 503 -85 458 -107 q 577 -37 547 -64 q 615 21 607 -11 q 619 54 619 38 q 592 127 619 96 q 524 181 564 158 q 439 217 483 203 q 360 239 394 231 l 353 239 q 328 251 333 239 l 328 254 q 333 261 328 257 q 357 271 338 265 q 462 298 403 282 q 583 337 521 314 q 708 390 646 360 q 820 458 769 419 q 906 542 871 496 q 951 642 942 588 q 956 688 956 667 q 913 813 956 764 q 803 890 869 863 q 656 929 736 918 q 504 940 576 940 q 444 939 472 940 q 392 935 415 938 q 206 898 299 924 q 35 833 114 872 q -103 742 -43 794 q -194 626 -164 690 q -204 586 -204 607 q -179 531 -204 558 q -175 521 -175 526 q -179 510 -175 514 q -190 504 -185 504 q -201 510 -193 504 q -235 586 -235 543 q -222 640 -235 611 q -126 763 -189 708 q 18 860 -64 818 q 195 928 100 901 q 388 965 290 954 q 442 969 413 968 q 503 971 471 971 q 667 958 582 971 q 824 915 753 946 q 940 829 894 883 q 986 692 986 775 q 982 638 986 667 z "},"C":{"ha":1454,"x_min":7,"x_max":1472,"o":"m 319 -235 q 139 -199 215 -235 q 28 -78 63 -164 q 7 29 7 -28 q 9 69 7 49 q 18 108 11 89 q 112 326 50 221 q 256 525 174 432 q 438 697 339 618 q 642 835 538 775 q 853 936 747 896 q 1056 990 958 976 q 1110 994 1083 994 q 1204 979 1163 994 q 1275 937 1246 964 q 1319 875 1304 910 q 1335 800 1335 840 q 1301 684 1335 743 q 1194 575 1268 625 q 1131 539 1168 557 q 1051 506 1093 521 q 963 483 1008 492 q 874 474 918 474 q 783 486 825 474 q 708 531 740 499 q 703 542 703 535 q 708 553 703 549 q 718 557 713 557 q 729 553 725 557 q 793 514 756 525 q 872 503 831 503 q 958 512 914 503 q 1042 535 1001 521 q 1118 567 1083 550 q 1178 601 1153 585 q 1277 701 1246 647 q 1308 807 1308 756 q 1259 918 1308 872 q 1121 964 1210 964 q 1090 963 1106 964 q 1057 958 1074 961 q 833 892 946 938 q 616 782 721 846 q 417 639 511 718 q 249 472 324 560 q 123 292 175 385 q 50 110 71 200 q 39 28 39 65 q 57 -67 39 -22 q 156 -173 86 -142 q 321 -204 225 -204 q 520 -181 413 -204 q 740 -119 628 -157 q 961 -33 851 -81 q 1166 60 1071 14 q 1336 149 1261 107 q 1451 217 1411 190 q 1463 221 1458 221 q 1472 210 1472 221 q 1464 197 1472 204 q 1343 125 1419 168 q 1171 34 1267 82 q 965 -62 1075 -14 q 743 -148 856 -110 q 522 -210 631 -186 q 319 -235 413 -235 z "},"D":{"ha":1318,"x_min":1,"x_max":1306,"o":"m 208 -296 q 196 -281 196 -293 l 196 -278 q 203 -235 199 -257 q 214 -190 207 -214 q 100 -174 157 -186 q 89 -158 89 -169 l 89 -154 q 103 -142 92 -142 l 107 -143 q 164 -154 135 -150 q 221 -161 193 -158 q 297 55 250 -58 q 401 278 344 168 q 520 488 458 389 q 639 661 582 588 q 651 667 643 667 q 663 663 658 667 q 668 653 668 660 q 664 643 668 647 q 548 474 608 571 q 431 269 488 376 q 328 49 375 161 q 253 -162 282 -62 l 285 -162 q 530 -128 408 -162 q 761 -37 651 -94 q 965 97 871 21 q 1127 257 1058 174 q 1235 426 1196 340 q 1274 590 1274 513 q 1251 697 1274 647 q 1180 784 1229 746 q 1054 849 1131 822 q 869 883 978 875 l 801 886 q 593 867 706 886 q 376 810 481 849 q 183 711 271 771 q 47 569 96 651 q 32 518 32 542 q 51 475 35 494 q 56 464 56 471 q 50 453 56 457 q 42 449 46 449 q 29 454 35 449 q 1 517 4 482 l 1 522 q 21 585 1 553 q 160 734 71 671 q 358 838 250 797 q 582 897 467 878 q 797 917 697 917 q 835 916 817 917 q 871 914 853 915 q 1069 876 988 904 q 1204 806 1151 849 q 1281 710 1257 764 q 1306 596 1306 657 q 1266 423 1306 514 q 1156 244 1226 332 q 989 77 1085 157 q 779 -63 893 -3 q 540 -159 665 -124 q 285 -194 414 -194 l 244 -193 q 233 -239 238 -217 q 226 -282 229 -261 q 208 -296 224 -296 z "},"E":{"ha":1185,"x_min":47,"x_max":1201,"o":"m 369 -235 q 256 -225 314 -235 q 152 -191 199 -215 q 76 -127 106 -167 q 47 -29 47 -87 q 57 38 47 4 q 130 176 76 111 q 253 292 183 240 q 401 380 322 343 q 549 438 479 417 q 443 484 483 449 q 403 578 403 519 q 419 651 403 613 q 487 745 440 703 q 593 819 533 788 q 719 867 653 850 q 849 885 786 885 q 983 857 924 885 q 1065 767 1042 829 q 1074 722 1074 742 q 1055 664 1074 689 q 1007 623 1036 639 q 943 599 978 607 q 876 590 908 590 q 865 590 871 590 q 854 592 860 590 q 842 607 842 594 l 842 610 q 847 620 842 617 q 858 624 851 624 q 879 622 865 622 q 933 628 904 622 q 987 646 963 633 q 1028 677 1011 658 q 1044 722 1044 696 q 1038 756 1044 738 q 966 831 1018 808 q 847 854 914 854 q 728 838 790 854 q 610 794 665 822 q 512 727 556 767 q 449 640 468 688 q 433 575 433 606 q 451 522 433 543 q 495 488 468 500 q 556 470 522 475 q 624 465 590 465 q 653 466 639 465 q 682 468 668 467 q 694 465 689 468 q 699 454 699 461 l 699 451 q 685 436 699 439 q 512 392 607 425 q 329 306 417 358 q 175 183 242 253 q 86 31 108 114 q 78 -26 78 -1 q 105 -113 78 -79 q 174 -167 132 -147 q 266 -194 215 -186 q 365 -203 317 -203 l 385 -203 q 526 -185 451 -201 q 676 -142 600 -169 q 825 -76 751 -114 q 964 7 899 -39 q 1085 104 1029 53 q 1178 211 1140 156 q 1192 221 1185 221 q 1197 219 1196 221 q 1201 211 1201 218 q 1197 200 1201 207 q 1041 33 1135 111 q 838 -104 947 -46 q 612 -197 729 -162 q 386 -235 494 -232 l 369 -235 z "},"F":{"ha":822,"x_min":-262,"x_max":846,"o":"m 301 -204 q 294 -189 294 -197 q 296 -182 294 -185 q 458 63 376 -57 q 606 318 540 183 q 533 319 569 319 q 461 319 497 319 q 389 319 425 319 q 317 318 353 319 q 301 331 301 318 q 317 344 301 344 l 617 344 q 686 599 686 500 q 626 741 686 697 q 474 785 567 785 q 357 772 419 785 q 229 733 294 758 q 99 674 164 708 q -24 599 35 640 q -172 463 -114 535 q -231 325 -231 392 q -207 251 -231 285 q -204 242 -204 246 q -211 229 -204 236 q -219 226 -217 226 q -232 233 -228 226 q -262 325 -262 276 q -246 401 -262 363 q -200 478 -229 440 q -131 553 -171 517 q -42 624 -90 590 q 87 702 19 667 q 222 763 154 738 q 354 801 289 788 q 478 815 419 815 q 574 803 531 815 q 650 766 618 792 q 700 701 682 740 q 718 604 718 661 q 702 488 718 553 q 650 344 686 424 q 740 343 696 343 q 831 342 785 343 q 846 331 846 342 l 846 329 q 831 317 846 317 q 735 317 782 317 q 639 318 688 318 q 490 54 574 179 q 322 -199 406 -71 q 310 -207 318 -207 q 301 -204 307 -207 z "},"G":{"ha":763,"x_min":7,"x_max":788,"o":"m 771 615 q 757 629 757 618 l 757 640 q 754 661 757 650 q 702 722 743 701 q 600 742 661 742 q 492 728 550 742 q 374 685 433 714 q 258 615 314 657 q 156 515 201 572 q 80 387 111 458 q 40 229 49 315 q 39 213 39 221 q 39 194 39 204 q 43 148 39 171 q 57 106 47 125 q 85 73 67 86 q 129 56 103 60 q 137 55 133 56 q 144 54 140 54 q 249 81 190 54 q 367 144 307 107 q 480 223 426 182 q 569 292 533 264 q 606 319 592 308 q 626 332 619 329 q 628 333 628 332 q 632 333 629 333 q 642 328 638 333 q 646 318 646 324 l 646 314 q 575 106 617 199 q 486 -61 533 13 q 435 -131 469 -87 q 360 -214 401 -174 q 273 -284 318 -254 q 188 -314 228 -314 q 176 -313 181 -314 q 165 -311 171 -312 q 138 -296 149 -307 q 128 -267 128 -285 l 128 -264 q 147 -205 128 -236 q 194 -142 165 -174 q 262 -82 224 -111 q 339 -31 300 -53 q 415 3 378 -10 q 481 17 453 17 q 496 15 492 17 q 555 138 528 72 q 604 279 582 203 q 509 206 567 250 q 387 122 451 163 q 257 53 322 82 q 142 24 192 24 q 133 24 138 24 q 125 25 129 25 q 69 46 92 29 q 32 86 46 63 q 13 139 18 110 q 7 199 7 168 q 7 215 7 207 q 8 232 7 224 q 85 468 22 367 q 235 637 149 569 q 419 738 322 704 q 599 772 517 772 q 721 747 671 772 q 785 669 771 722 q 787 655 786 663 q 788 640 788 647 l 788 629 q 771 615 785 615 m 460 -44 q 479 -14 469 -31 l 476 -14 q 422 -26 454 -14 q 353 -59 389 -39 q 283 -105 318 -79 q 221 -158 249 -131 q 176 -214 193 -186 q 158 -264 158 -242 q 172 -281 158 -278 q 188 -282 178 -282 q 264 -253 222 -282 q 344 -185 306 -224 q 415 -106 383 -146 q 460 -44 446 -67 z "},"H":{"ha":1038,"x_min":-314,"x_max":1110,"o":"m 888 240 q 729 -92 810 69 q 581 -379 649 -253 q 567 -387 576 -387 q 560 -386 563 -387 q 551 -371 551 -382 q 553 -365 551 -367 q 624 -233 586 -304 q 699 -83 661 -161 q 777 77 738 -6 q 854 243 817 160 q 834 244 844 244 q 811 244 824 244 q 734 242 776 244 q 645 236 692 240 q 551 227 599 232 q 457 218 503 222 q 408 132 439 185 q 347 24 376 79 q 294 -81 317 -31 q 267 -158 271 -131 q 249 -172 264 -172 q 236 -157 236 -169 l 236 -154 q 263 -76 240 -125 q 313 26 285 -28 q 371 129 342 79 q 419 213 400 179 q 307 199 356 206 q 236 189 258 192 l 233 189 q 218 201 221 189 l 218 204 q 232 219 218 217 q 310 229 254 222 q 438 243 365 236 q 494 347 464 289 q 551 464 525 404 q 595 581 578 524 q 613 685 613 639 q 587 765 613 735 q 499 796 561 796 q 392 778 450 796 q 273 733 335 761 q 149 665 211 704 q 26 580 86 625 q -86 487 -33 535 q -181 390 -139 439 q -210 353 -193 376 q -244 305 -228 331 q -271 251 -260 279 q -282 199 -282 224 q -272 161 -282 176 q -224 126 -258 139 q -126 114 -189 114 q -115 110 -119 114 q -110 99 -110 106 q -115 88 -110 92 q -126 83 -119 83 q -239 99 -197 83 q -299 144 -281 115 q -314 199 -314 168 q -302 258 -314 228 q -274 316 -290 288 q -238 369 -257 344 q -204 411 -219 393 q -108 510 -162 460 q 8 606 -53 560 q 135 692 69 651 q 265 762 200 732 q 389 809 329 792 q 499 826 449 826 q 610 789 578 826 q 643 692 643 751 q 627 587 643 644 q 586 469 611 529 q 532 353 561 410 q 475 247 503 296 q 569 256 521 251 q 663 264 617 261 q 751 269 708 267 q 828 271 793 271 q 848 270 839 271 q 867 269 857 269 q 988 556 932 417 q 1079 810 1043 694 q 1094 821 1082 821 l 1097 821 q 1110 806 1110 815 q 1109 803 1110 804 q 1108 801 1108 803 q 1018 549 1072 686 q 899 267 964 411 q 926 260 917 265 q 933 246 933 253 q 931 238 933 243 q 918 231 926 231 q 910 233 915 231 q 888 240 903 238 z "},"I":{"ha":497,"x_min":15,"x_max":506,"o":"m 22 -218 q 15 -204 15 -211 q 18 -196 15 -201 q 52 -142 28 -182 q 110 -47 76 -103 q 185 78 144 10 q 267 220 226 147 q 347 367 308 293 q 414 506 385 440 q 461 624 443 571 q 479 708 479 676 q 457 749 479 743 q 444 750 453 750 q 384 733 419 750 q 310 689 349 717 q 234 626 272 661 q 165 553 196 590 q 119 488 142 525 q 96 418 96 450 q 113 378 96 394 q 174 358 131 363 q 184 353 181 358 q 188 342 188 349 q 174 328 185 328 l 171 328 q 89 357 113 333 q 65 413 65 381 q 90 494 65 451 q 142 572 114 538 q 215 649 174 611 q 297 715 256 686 q 378 762 339 744 q 447 779 418 779 q 464 778 458 779 q 506 710 506 768 q 475 574 506 657 q 398 394 444 490 q 296 200 351 299 q 189 17 240 101 q 98 -130 138 -68 q 44 -212 58 -192 q 32 -221 40 -221 q 22 -218 28 -221 z "},"J":{"ha":735,"x_min":21,"x_max":724,"o":"m 539 814 q 608 825 581 825 q 697 786 671 825 q 724 681 724 747 q 694 505 724 606 q 615 297 664 404 q 504 85 567 190 q 376 -103 442 -19 q 245 -239 310 -186 q 128 -294 181 -292 l 121 -294 q 56 -269 79 -294 q 32 -204 32 -243 q 33 -190 32 -197 q 35 -176 33 -183 q 70 -99 43 -137 q 137 -27 97 -61 q 224 37 176 7 q 321 90 272 67 q 416 128 369 113 q 497 149 463 143 q 523 203 506 167 q 562 285 540 239 q 606 385 583 332 q 646 493 628 439 q 676 599 664 547 q 688 692 688 650 q 668 768 688 739 q 601 797 649 797 q 546 789 578 797 q 444 747 499 775 q 334 685 389 719 q 228 611 279 650 q 139 537 178 572 q 76 474 100 501 q 53 432 53 446 l 53 428 q 61 424 53 424 q 121 438 78 424 q 123 438 122 438 q 125 439 124 439 q 140 428 136 439 l 140 425 q 129 408 140 413 q 64 396 88 396 q 22 418 31 396 q 21 426 21 421 q 44 478 21 446 q 108 549 68 511 q 201 628 149 588 q 312 704 254 668 q 428 769 369 740 q 539 814 488 799 m 128 -264 q 206 -227 164 -260 q 294 -143 249 -194 q 388 -25 340 -92 q 481 114 435 42 q 367 75 435 103 q 236 8 300 47 q 124 -81 172 -32 q 65 -182 75 -131 q 63 -194 64 -189 q 63 -204 63 -199 q 76 -247 63 -231 q 118 -264 90 -264 l 128 -264 z "},"K":{"ha":661,"x_min":-60,"x_max":943,"o":"m 571 -251 q 526 -219 546 -246 q 485 -153 506 -192 q 444 -71 465 -115 q 395 14 422 -26 q 334 85 368 54 q 254 125 300 115 q 166 -42 211 39 q 81 -189 121 -122 q 12 -303 42 -256 q -32 -371 -18 -351 q -44 -378 -36 -378 q -60 -364 -60 -378 q -57 -354 -60 -357 q -17 -290 -44 -336 q 49 -180 11 -244 q 131 -35 86 -115 q 218 129 175 44 q 188 126 204 129 q 158 119 172 124 q 131 113 143 115 q 114 110 119 110 l 113 110 q 97 122 97 111 q 131 168 97 138 q 217 240 172 206 q 306 310 261 275 q 353 418 331 364 q 391 522 375 472 q 417 613 407 571 q 426 688 426 656 q 417 736 426 718 q 383 757 407 754 l 376 757 q 311 740 349 757 q 234 692 274 722 q 156 624 194 663 q 87 543 117 585 q 38 460 57 501 q 19 381 19 418 q 42 314 19 342 q 46 303 46 310 q 40 292 46 296 q 31 288 36 288 q 18 293 24 288 q -12 379 -12 329 q 7 467 -12 421 q 59 558 26 514 q 133 643 92 603 q 218 714 175 683 q 303 763 261 744 q 376 781 344 781 l 388 781 q 440 747 425 775 q 456 678 456 719 q 444 585 456 636 q 416 488 432 535 q 385 405 400 442 q 363 353 369 368 q 517 469 436 410 q 674 584 597 529 q 814 684 750 639 q 918 756 878 729 q 926 758 924 758 q 940 751 933 758 q 943 743 943 746 q 935 731 943 735 q 821 653 892 703 q 667 542 750 603 q 498 417 585 482 q 336 294 411 351 q 304 224 321 258 q 269 154 288 189 q 353 110 317 142 q 417 38 389 79 q 466 -47 444 -3 q 506 -128 488 -90 q 542 -191 525 -165 q 576 -221 558 -217 q 589 -236 589 -224 l 589 -239 q 574 -251 586 -251 l 571 -251 m 233 160 q 255 203 244 182 q 276 247 265 225 q 163 154 217 200 q 218 160 189 160 l 233 160 z "},"L":{"ha":583,"x_min":-87,"x_max":796,"o":"m 21 -232 q -11 -227 6 -232 q -28 -203 -28 -222 q -1 -145 -28 -193 q 67 -27 26 -97 q 154 130 107 43 q 242 305 201 217 q 309 476 282 393 q 336 621 336 558 q 313 699 336 676 q 254 722 290 722 q 157 696 211 722 q 56 631 103 669 q -24 548 8 592 q -56 468 -56 504 q -35 426 -56 442 q -29 413 -29 418 q -44 399 -29 400 q -62 406 -54 399 q -75 425 -69 414 q -84 447 -81 436 q -87 467 -87 458 q -53 561 -87 511 q 35 654 -18 611 q 147 726 88 697 q 257 754 207 754 q 333 725 303 754 q 363 625 363 696 q 336 475 363 560 q 271 301 310 390 q 185 124 232 211 q 100 -32 139 38 q 35 -145 61 -101 q 8 -193 8 -189 q 13 -201 8 -199 q 19 -203 17 -203 q 67 -198 43 -203 q 114 -190 90 -193 q 316 -166 214 -175 q 521 -157 418 -157 q 553 -158 529 -157 q 608 -160 578 -158 q 672 -167 639 -162 q 733 -179 706 -172 q 778 -197 760 -186 q 796 -224 796 -208 q 792 -234 796 -229 q 781 -239 788 -239 q 774 -237 776 -239 q 768 -233 771 -236 q 721 -207 751 -217 q 656 -193 690 -197 q 588 -188 621 -189 q 531 -187 554 -187 q 324 -197 428 -187 q 119 -221 221 -206 q 70 -228 94 -225 q 21 -232 46 -232 z "},"M":{"ha":1465,"x_min":115,"x_max":1476,"o":"m 1029 -326 q 1060 -205 1033 -285 q 1125 -26 1086 -125 q 1210 185 1164 74 q 1300 403 1256 297 q 1382 601 1344 510 q 1442 751 1419 692 q 1450 786 1450 775 q 1440 800 1450 800 q 1401 778 1425 800 q 1353 729 1379 758 q 1296 663 1326 700 q 1242 591 1278 642 q 1163 476 1207 540 q 1068 344 1118 413 q 972 219 1018 276 q 888 126 926 163 q 829 89 850 89 l 825 89 q 808 122 808 93 q 821 194 808 149 q 864 358 851 299 q 876 444 876 418 q 869 468 876 465 l 867 468 q 826 438 853 468 q 765 360 799 408 q 692 249 731 311 q 615 124 653 188 q 542 2 576 61 q 483 -100 508 -57 q 451 -155 464 -133 q 435 -182 438 -176 q 417 -194 426 -194 q 407 -190 411 -194 q 403 -181 403 -189 q 417 -133 403 -165 q 453 -56 431 -101 q 503 53 475 -8 q 561 183 532 115 q 619 322 590 251 q 669 458 647 393 q 705 581 692 524 q 718 678 718 638 q 704 736 718 718 q 674 749 694 749 q 590 722 642 749 q 478 653 538 696 q 360 556 419 610 q 252 449 300 503 q 174 346 204 394 q 143 264 143 297 q 156 232 143 244 q 171 220 161 225 q 181 206 181 215 q 179 199 181 201 q 167 190 175 190 q 148 197 157 190 q 133 210 139 204 q 115 258 115 228 q 146 353 115 299 q 225 465 176 407 q 335 578 274 522 q 458 678 396 635 q 578 749 521 722 q 676 776 636 776 q 729 754 713 776 q 747 682 747 731 q 727 551 747 628 q 676 388 707 474 q 608 216 644 303 q 536 53 571 129 q 628 205 579 126 q 723 349 676 283 q 809 456 769 414 q 872 499 849 499 q 875 498 874 499 q 878 497 876 497 q 901 439 901 490 q 890 340 901 401 q 850 185 878 278 q 843 158 846 169 q 840 140 840 147 q 844 133 840 133 q 878 164 853 133 q 940 241 904 194 q 1015 341 975 288 q 1096 449 1056 394 q 1172 551 1136 503 q 1234 634 1207 599 q 1272 683 1261 669 q 1331 748 1303 719 q 1382 796 1358 776 q 1421 821 1403 811 q 1451 831 1439 831 q 1476 799 1476 831 q 1469 757 1476 785 q 1413 592 1450 685 q 1333 397 1376 499 q 1244 190 1290 294 q 1160 -12 1199 85 q 1094 -191 1121 -108 q 1061 -329 1067 -274 q 1046 -343 1058 -343 l 1043 -343 q 1029 -326 1029 -340 z "},"N":{"ha":926,"x_min":6,"x_max":871,"o":"m 92 131 q 104 117 104 128 q 103 115 104 115 q 103 113 103 114 q 88 100 100 100 l 85 100 q 26 137 44 108 q 6 208 7 165 l 6 214 q 24 316 6 256 q 72 442 42 376 q 140 573 101 507 q 220 690 179 639 q 301 774 261 742 q 375 807 342 807 q 393 804 382 807 q 435 756 422 793 q 447 665 447 719 q 438 548 447 613 q 413 415 428 483 q 381 280 399 347 q 346 156 363 213 q 315 55 329 99 q 294 -10 301 11 q 372 135 329 56 q 461 298 414 215 q 557 460 508 381 q 651 602 606 539 q 735 708 696 665 q 803 758 775 750 q 819 761 814 761 q 864 717 851 761 q 871 664 871 692 q 856 536 871 611 q 817 375 840 461 q 766 197 793 289 q 715 18 739 106 q 676 -147 692 -69 q 661 -282 661 -225 q 677 -367 661 -335 q 733 -400 693 -399 q 749 -415 749 -400 q 744 -426 749 -422 q 732 -431 739 -431 q 657 -387 679 -428 q 635 -279 635 -347 q 650 -135 635 -217 q 688 34 665 -54 q 738 214 711 122 q 787 389 764 306 q 825 544 810 472 q 840 664 840 615 q 839 688 840 678 q 835 708 838 699 q 815 729 829 729 l 811 729 q 732 673 775 718 q 643 560 689 628 q 551 410 597 493 q 460 244 504 328 q 376 80 415 160 q 304 -62 336 0 q 251 -161 272 -124 q 222 -199 229 -199 q 210 -195 215 -197 q 206 -186 206 -193 q 207 -178 206 -181 q 233 -100 215 -156 q 275 31 251 -44 q 324 196 299 107 q 371 372 350 285 q 406 538 392 458 q 419 674 419 617 q 411 742 419 715 q 383 775 403 768 q 371 776 379 776 q 309 744 344 776 q 236 662 274 713 q 163 548 199 611 q 99 422 126 485 q 53 304 71 360 q 36 214 36 249 l 36 210 q 51 157 38 178 q 92 131 64 136 z "},"O":{"ha":926,"x_min":-62,"x_max":779,"o":"m 753 233 q 690 84 733 165 q 588 -69 647 3 q 458 -190 529 -140 q 307 -246 386 -240 l 293 -246 q 193 -218 235 -246 q 126 -147 151 -190 q 88 -51 100 -104 q 75 51 75 1 q 76 65 75 58 q 76 79 76 72 q -22 111 18 83 q -62 201 -62 139 l -62 213 q -30 349 -58 283 q 43 470 -1 414 q 146 571 88 526 q 267 646 204 615 q 384 688 328 675 q 492 701 440 701 q 608 681 556 701 q 699 622 661 660 q 758 527 738 583 q 779 400 779 471 q 753 233 779 322 m 306 -214 q 447 -161 379 -210 q 569 -44 514 -112 q 665 101 624 24 q 724 242 706 179 q 749 400 749 329 q 678 600 749 529 q 492 671 607 671 q 391 658 443 671 q 281 618 339 646 q 166 547 221 589 q 69 452 111 504 q -1 339 26 400 q -32 211 -28 278 l -32 203 q 2 133 -32 153 q 81 110 36 113 q 94 176 85 143 q 119 238 104 208 q 133 246 124 246 q 140 244 138 246 q 149 232 149 243 q 147 224 149 226 q 111 110 119 171 q 217 126 161 113 q 327 160 272 139 q 433 206 382 181 q 524 258 483 232 q 533 261 528 261 q 546 250 546 261 q 538 236 546 243 q 442 181 494 208 q 333 131 389 153 q 219 95 276 110 q 108 79 161 81 q 107 65 107 72 q 107 49 107 57 q 117 -42 107 4 q 149 -127 126 -89 q 206 -190 171 -165 q 292 -214 242 -214 l 306 -214 z "},"P":{"ha":901,"x_min":-212,"x_max":999,"o":"m 574 917 q 753 888 674 914 q 887 821 832 863 q 970 724 942 779 q 999 608 999 669 q 928 416 999 515 q 706 232 857 317 q 451 128 588 165 q 175 88 314 92 q 117 -120 139 -25 q 92 -281 96 -215 q 87 -292 92 -287 q 75 -296 82 -296 q 61 -282 61 -293 l 61 -279 q 86 -118 65 -212 q 143 86 107 -24 q 83 88 113 86 q 24 92 53 89 q 10 110 10 94 q 21 117 11 117 l 28 117 q 121 113 74 113 l 151 113 q 264 396 200 257 q 413 661 328 535 q 425 668 417 668 q 433 665 428 668 q 440 651 440 658 q 438 643 440 649 q 294 387 356 521 q 185 114 232 253 q 448 158 318 121 q 692 260 578 196 q 901 431 835 339 q 967 607 967 522 q 940 712 967 663 q 863 799 914 761 q 739 859 813 836 q 572 885 665 882 l 546 885 q 349 867 457 885 q 138 813 240 850 q -48 715 36 775 q -172 571 -132 656 q -182 531 -182 551 q -157 475 -182 503 q -153 465 -153 471 q -157 454 -153 458 q -168 449 -162 449 q -179 454 -171 449 q -212 531 -212 488 q -200 585 -212 556 q -123 692 -172 644 q -11 776 -74 739 q 123 840 51 814 q 268 883 194 867 q 413 908 342 900 q 547 917 485 917 l 574 917 z "},"Q":{"ha":992,"x_min":6,"x_max":847,"o":"m 144 150 q 47 183 88 154 q 6 272 6 211 l 6 283 q 33 406 8 344 q 99 521 58 467 q 192 622 139 575 q 306 702 246 668 q 431 756 367 736 q 557 775 494 775 q 626 769 593 775 q 692 747 660 763 q 811 639 775 710 q 847 481 847 568 q 831 351 847 418 q 786 219 815 285 q 718 92 757 153 q 634 -20 679 31 q 539 -108 589 -71 q 439 -161 489 -144 q 501 -227 471 -192 q 567 -293 532 -262 q 641 -344 601 -324 q 729 -365 681 -365 q 788 -357 757 -365 l 790 -357 q 807 -368 803 -357 l 807 -371 q 796 -387 807 -383 q 731 -396 761 -396 q 628 -372 674 -396 q 544 -314 582 -349 q 472 -240 506 -279 q 406 -171 438 -201 q 381 -175 393 -174 q 358 -176 369 -176 q 262 -149 303 -176 q 194 -80 221 -122 q 156 16 168 -37 q 143 121 143 69 q 144 135 143 128 q 144 150 144 143 m 36 274 q 70 203 36 224 q 149 181 104 183 q 163 247 153 214 q 188 308 172 279 q 201 317 192 317 q 208 315 206 317 q 217 303 217 314 q 215 294 217 297 q 179 181 188 242 q 282 195 228 183 q 390 226 336 207 q 494 270 444 246 q 583 319 544 294 q 594 326 588 322 q 606 331 601 331 q 610 329 608 331 q 613 319 613 324 q 606 307 613 314 q 508 251 561 279 q 399 202 456 224 q 286 166 343 181 q 176 150 229 151 q 175 133 175 142 q 175 117 175 125 q 185 26 175 72 q 218 -58 196 -21 q 276 -119 240 -96 q 361 -143 311 -143 l 375 -143 q 341 -123 358 -131 q 306 -115 324 -115 q 300 -116 303 -115 q 294 -117 297 -117 q 289 -117 292 -117 q 283 -118 286 -118 q 278 -112 278 -118 l 278 -110 q 292 -96 278 -96 q 300 -95 296 -96 q 307 -94 304 -94 q 362 -106 336 -94 q 411 -137 388 -118 q 560 -53 488 -118 q 690 99 633 11 q 781 288 746 188 q 815 478 815 388 q 783 622 815 558 q 679 718 751 686 q 557 743 624 743 q 379 704 469 743 q 215 601 289 665 q 91 453 140 536 q 36 282 42 369 l 36 274 z "},"R":{"ha":965,"x_min":-214,"x_max":1000,"o":"m 1000 597 q 956 451 997 518 q 847 328 914 383 q 697 231 781 274 q 526 159 613 189 q 356 112 439 129 q 210 89 274 94 q 313 26 256 64 q 438 -60 371 -11 q 577 -169 504 -108 q 724 -300 650 -229 q 728 -311 728 -304 q 724 -322 728 -318 q 713 -326 719 -326 q 701 -322 708 -326 q 413 -71 546 -171 q 192 75 281 29 q 182 79 186 78 q 172 83 178 81 q 115 -121 136 -26 q 90 -281 94 -215 q 85 -292 90 -287 q 74 -296 81 -296 q 60 -282 60 -293 l 60 -279 q 85 -118 64 -212 q 142 86 106 -24 q 102 87 122 86 q 63 89 82 88 q 49 106 49 90 q 54 124 49 113 q 92 142 64 142 q 102 141 97 142 q 114 139 107 140 q 154 126 133 135 q 265 402 203 267 q 411 661 328 538 q 424 668 415 668 q 432 665 426 668 q 439 651 439 658 q 436 643 439 649 q 294 389 356 521 q 185 118 232 257 q 325 136 244 121 q 492 179 406 151 q 664 247 579 207 q 816 340 749 288 q 926 457 883 393 q 969 597 968 521 l 969 606 q 934 730 969 678 q 838 816 899 782 q 699 866 778 850 q 531 882 619 882 q 315 860 425 882 q 107 799 204 839 q -65 701 10 758 q -174 571 -139 643 q -183 531 -183 551 q -158 475 -183 503 q -154 465 -154 471 q -158 454 -154 458 q -169 449 -164 449 q -181 454 -172 449 q -214 531 -214 488 q -201 585 -214 556 q -87 722 -165 661 q 90 824 -10 782 q 304 889 190 867 q 528 911 418 911 q 708 894 622 911 q 859 839 794 876 q 962 744 924 801 q 1000 607 1000 686 l 1000 597 z "},"S":{"ha":625,"x_min":-311,"x_max":918,"o":"m 694 875 q 764 879 726 879 q 819 876 792 879 q 869 863 847 872 q 905 836 892 853 q 918 794 918 819 q 904 739 918 771 q 822 626 878 679 q 691 526 765 572 q 531 440 617 479 q 358 367 444 400 q 190 310 271 335 q 44 268 108 286 q 99 204 63 238 q 179 139 136 171 q 265 78 222 107 q 339 26 308 49 q 346 28 342 28 q 360 21 353 28 q 363 8 363 18 q 479 -92 429 -42 q 539 -185 529 -142 q 542 -207 542 -199 q 513 -276 542 -246 q 440 -326 485 -306 q 340 -358 396 -347 q 232 -369 285 -369 q 128 -357 175 -369 q 58 -317 82 -344 q 39 -267 39 -294 q 61 -201 39 -237 q 135 -119 83 -164 q 232 -44 183 -76 q 311 7 281 -12 q 235 61 278 32 q 149 123 192 90 q 69 190 106 156 q 14 260 33 225 q -133 223 -57 240 q -293 189 -208 206 l -296 189 q -311 201 -308 189 l -311 204 q -299 219 -311 217 q -209 234 -250 226 q -133 249 -168 242 q -65 266 -97 257 q 1 285 -32 275 q -11 354 -11 321 q 36 496 -11 428 q 160 627 81 563 q 334 744 240 692 q 524 831 428 796 q 694 875 619 865 m 510 -192 q 490 -152 506 -174 q 452 -108 475 -131 q 400 -60 429 -85 q 339 -12 371 -36 q 244 -74 290 -43 q 154 -143 199 -106 q 90 -213 110 -183 q 71 -265 71 -243 q 82 -296 71 -282 q 142 -328 101 -318 q 231 -337 182 -337 q 328 -328 278 -337 q 418 -302 378 -319 q 485 -260 458 -285 q 511 -206 511 -236 q 510 -192 511 -197 m 876 751 q 886 790 886 772 q 876 819 886 808 q 851 837 867 831 q 816 846 836 843 q 775 849 796 849 q 734 847 754 849 q 699 843 714 846 q 534 801 626 835 q 351 717 442 767 q 181 605 260 667 q 61 479 103 543 q 31 419 42 451 q 21 354 21 388 q 23 324 21 339 q 32 293 25 308 q 172 334 93 310 q 337 391 251 358 q 508 463 422 424 q 667 548 594 503 q 796 644 740 593 q 876 751 851 696 z "},"T":{"ha":531,"x_min":-190,"x_max":950,"o":"m 869 778 q 910 788 893 781 q 938 794 928 794 q 950 783 949 794 l 950 781 q 938 764 950 769 q 819 748 883 754 q 681 738 754 742 q 529 733 608 735 q 368 731 450 732 q 324 589 349 665 q 272 433 300 513 q 215 273 244 353 q 156 121 186 193 q 108 10 132 63 q 60 -83 83 -42 q 15 -155 38 -125 q -28 -199 -7 -185 q -37 -201 -31 -201 q -49 -196 -44 -201 q -51 -186 -51 -193 q -46 -174 -51 -178 q 35 -64 -10 -147 q 126 133 79 19 q 185 282 156 204 q 241 438 214 360 q 292 590 268 515 q 336 731 317 665 q 78 724 207 728 q -174 708 -51 721 l -176 708 q -190 722 -190 708 l -190 725 q -176 739 -190 739 q 81 755 -51 751 q 346 761 214 758 q 353 786 349 774 q 360 810 357 799 q 376 821 364 821 l 379 821 q 390 807 390 817 q 390 804 390 806 q 389 801 389 803 q 378 763 385 785 q 643 765 517 764 q 869 778 769 767 z "},"U":{"ha":736,"x_min":-11,"x_max":622,"o":"m 607 756 q 622 740 622 756 q 612 582 622 676 q 578 383 601 488 q 519 173 556 278 q 433 -16 483 68 q 316 -153 382 -100 q 165 -208 250 -207 l 161 -208 q 78 -186 111 -208 q 26 -124 46 -164 q -3 -32 6 -85 q -11 82 -11 21 q 3 271 -11 172 q 35 458 17 369 q 72 617 54 547 q 97 719 90 688 q 113 732 100 732 l 115 732 q 128 717 128 726 l 128 714 q 104 617 122 686 q 68 458 86 547 q 35 269 50 368 q 21 81 21 169 q 28 -21 21 26 q 51 -103 35 -68 q 95 -158 68 -137 q 163 -178 122 -178 l 165 -178 q 305 -124 243 -176 q 415 11 367 -71 q 496 195 463 93 q 551 399 529 297 q 582 591 572 500 q 592 740 592 682 q 607 756 592 756 z "},"V":{"ha":725,"x_min":0,"x_max":811,"o":"m 799 915 q 811 900 811 910 q 810 898 811 899 q 810 896 810 897 q 764 751 796 831 q 688 584 732 671 q 592 408 644 497 q 482 232 539 318 q 356 50 419 136 q 235 -100 292 -36 q 132 -201 178 -164 q 58 -239 86 -239 q 13 -218 26 -239 q 0 -158 0 -197 q 10 -65 0 -121 q 36 63 21 -10 q 63 199 49 125 q 90 357 78 274 q 111 533 103 440 q 119 725 119 625 q 135 740 119 740 q 150 725 150 740 q 142 531 150 625 q 121 353 133 438 q 94 193 108 268 q 67 56 79 118 q 41 -69 51 -15 q 31 -158 31 -122 q 58 -207 31 -207 q 124 -171 82 -207 q 219 -72 165 -135 q 333 73 272 -10 q 456 249 394 156 q 563 422 511 333 q 659 597 615 511 q 735 760 703 682 q 781 903 767 839 q 796 915 783 915 l 799 915 z "},"W":{"ha":1035,"x_min":-3,"x_max":1276,"o":"m 1260 947 q 1272 941 1268 947 q 1276 926 1276 935 q 1249 834 1275 896 q 1180 693 1222 772 q 1083 523 1138 614 q 967 342 1028 432 q 846 168 907 251 q 729 21 785 85 q 628 -81 674 -43 q 556 -119 583 -119 q 503 -93 519 -119 q 486 -22 486 -67 q 497 60 486 14 q 525 158 508 107 q 562 263 542 210 q 600 367 582 317 q 676 567 649 497 q 703 650 703 638 q 701 653 703 651 l 700 653 q 633 569 690 653 q 468 329 575 486 q 397 223 435 279 q 319 113 358 167 q 242 8 281 58 q 167 -81 203 -43 q 101 -141 132 -118 q 46 -164 69 -164 q 28 -160 36 -164 q 4 -126 11 -151 q -3 -61 -3 -100 q 10 69 -3 -7 q 42 227 22 144 q 86 394 63 310 q 133 549 110 478 q 174 674 156 621 q 201 750 193 728 q 217 761 206 761 q 224 760 221 761 q 233 744 233 756 q 232 736 233 739 q 203 655 222 711 q 162 524 185 599 q 115 365 139 450 q 71 199 90 281 q 39 47 51 118 q 26 -68 26 -24 q 43 -128 26 -118 q 54 -131 49 -131 q 97 -110 71 -131 q 153 -54 122 -89 q 219 28 183 -19 q 292 129 254 76 q 367 239 329 182 q 442 350 406 296 q 617 604 549 510 q 715 699 685 699 q 724 696 718 699 q 733 671 733 690 q 705 555 733 635 q 632 356 676 475 q 594 254 614 307 q 558 151 575 201 q 531 55 542 100 q 521 -24 521 10 q 556 -83 521 -83 l 557 -83 q 623 -46 581 -83 q 717 54 665 -8 q 828 198 769 117 q 945 367 888 279 q 1056 544 1003 456 q 1149 708 1108 632 q 1215 843 1190 785 q 1242 929 1240 901 q 1257 947 1244 947 l 1260 947 z "},"X":{"ha":761,"x_min":1,"x_max":822,"o":"m 796 854 q 807 860 801 860 q 818 854 814 860 q 822 844 822 850 q 818 833 822 838 q 735 748 783 799 q 630 636 686 697 q 513 506 574 575 q 392 365 453 436 q 419 285 399 343 q 467 156 439 228 q 527 5 494 83 q 593 -138 560 -74 q 658 -245 626 -203 q 713 -287 689 -287 l 717 -287 q 724 -286 719 -286 q 738 -294 733 -286 q 739 -301 739 -297 q 731 -315 739 -311 q 725 -317 728 -317 q 719 -319 722 -318 q 715 -320 717 -319 q 711 -321 714 -321 q 644 -278 679 -321 q 574 -171 610 -236 q 505 -26 539 -106 q 443 126 471 53 q 396 256 415 199 q 368 338 376 314 q 278 229 328 289 q 182 107 229 169 q 94 -19 135 44 q 32 -136 54 -82 q 18 -146 29 -146 q 15 -145 15 -146 q 11 -144 14 -144 q 1 -129 1 -140 q 2 -126 1 -128 q 3 -124 3 -125 q 69 -1 26 -67 q 161 131 111 65 q 263 258 211 196 q 357 371 314 321 q 311 512 332 444 q 274 632 290 579 q 249 719 258 685 q 239 764 240 754 q 253 781 239 778 q 265 777 260 781 q 269 767 269 774 q 279 724 271 757 q 302 643 288 692 q 336 531 317 594 q 379 399 356 468 q 499 535 439 468 q 613 663 558 603 q 715 772 668 722 q 796 854 763 821 z "},"Y":{"ha":851,"x_min":36,"x_max":846,"o":"m 835 717 q 843 712 840 715 q 846 697 846 708 q 844 681 846 690 q 839 660 843 672 q 819 599 832 636 q 786 518 806 563 q 732 390 768 474 q 649 207 696 307 q 547 1 603 107 q 433 -192 492 -104 q 316 -340 375 -281 q 203 -408 257 -400 q 188 -410 197 -410 q 156 -396 164 -410 q 147 -362 147 -382 q 151 -332 147 -347 q 160 -304 154 -317 q 201 -233 174 -272 q 274 -150 229 -193 q 379 -62 318 -107 q 519 26 440 -17 q 540 63 522 28 q 583 149 558 97 q 635 261 607 200 q 689 378 664 322 q 733 475 714 433 q 757 531 751 517 q 783 592 772 564 q 801 643 793 621 q 790 627 796 636 q 778 607 785 618 q 608 358 688 460 q 462 193 529 256 q 339 103 394 131 q 238 75 283 75 q 161 96 194 75 q 103 152 126 117 q 65 231 79 188 q 43 326 50 275 q 36 428 36 376 q 49 580 36 507 q 83 701 63 653 q 145 796 108 760 q 231 832 182 832 q 288 819 258 832 q 297 806 297 817 q 296 800 297 801 q 282 790 293 790 q 276 792 278 790 q 235 801 253 801 q 164 770 194 801 q 111 689 133 739 q 79 572 92 643 q 67 425 67 501 q 72 331 67 378 q 91 244 78 285 q 125 172 104 204 q 176 122 146 140 q 240 104 206 104 q 334 131 282 104 q 449 219 386 158 q 588 380 513 281 q 751 624 664 479 q 766 647 757 632 q 785 678 775 663 q 808 706 796 694 q 832 717 821 717 l 835 717 m 197 -378 q 287 -328 242 -371 q 372 -229 332 -285 q 443 -117 411 -174 q 494 -25 475 -61 q 285 -182 360 -104 q 188 -315 211 -260 q 181 -335 185 -322 q 176 -360 176 -349 q 192 -378 176 -378 l 197 -378 z "},"Z":{"ha":963,"x_min":7,"x_max":990,"o":"m 356 617 q 391 660 356 639 q 482 696 426 681 q 607 721 538 711 q 743 731 676 731 q 892 713 826 731 q 981 656 958 696 q 990 618 990 636 q 946 513 990 575 q 796 365 901 451 q 516 167 690 279 q 83 -86 342 56 q 62 -99 72 -93 q 51 -111 51 -106 q 78 -118 51 -118 l 85 -118 q 188 -115 131 -118 q 310 -106 246 -111 q 441 -98 374 -101 q 572 -94 508 -94 q 731 -104 658 -94 q 850 -140 804 -114 q 857 -154 857 -144 q 856 -161 857 -158 q 842 -168 851 -168 q 833 -167 836 -168 q 725 -135 793 -143 q 575 -126 657 -126 q 450 -130 514 -126 q 325 -137 386 -133 q 209 -144 264 -140 q 111 -147 154 -147 q 43 -143 69 -147 q 10 -128 17 -139 q 7 -118 7 -122 q 69 -58 7 -93 q 494 189 324 81 q 769 378 665 297 q 916 517 872 460 q 960 613 960 575 q 953 642 960 628 q 880 687 936 674 q 753 700 824 700 q 728 700 740 700 q 704 699 717 700 q 633 656 671 675 q 557 624 594 638 q 536 617 553 622 q 497 606 519 611 q 448 596 474 600 q 401 592 422 592 q 369 597 382 592 q 356 617 356 601 m 547 653 q 592 671 569 661 q 638 693 614 681 q 547 680 590 688 q 468 663 503 672 q 412 643 433 653 q 388 625 390 633 q 407 617 390 617 q 447 622 424 617 q 492 634 471 628 q 530 647 514 640 q 547 653 546 653 z "},"[":{"ha":519,"x_min":0,"x_max":0,"o":""},"\\":{"ha":501,"x_min":0,"x_max":0,"o":""},"]":{"ha":519,"x_min":0,"x_max":0,"o":""},"^":{"ha":158,"x_min":0,"x_max":0,"o":""},"_":{"ha":442,"x_min":0,"x_max":0,"o":""},"`":{"ha":57,"x_min":0,"x_max":0,"o":""},"a":{"ha":556,"x_min":-89,"x_max":576,"o":"m -37 15 q -74 30 -61 15 q -89 68 -87 44 l -89 76 q -65 154 -89 119 q -6 214 -42 189 q 69 253 29 239 q 143 268 110 267 l 147 268 q 206 253 182 268 q 231 213 231 239 q 226 202 231 206 q 214 199 221 199 q 204 205 208 199 q 194 218 200 211 q 176 231 188 225 q 146 238 165 238 q 81 224 117 238 q 15 188 46 211 q -37 135 -17 165 q -58 68 -58 104 q -49 51 -58 57 q -29 44 -40 44 q 33 63 3 44 q 90 106 63 81 q 140 156 117 131 q 183 194 164 181 q 185 195 185 194 q 188 196 186 196 q 197 189 193 196 q 200 179 200 182 l 200 178 q 194 151 200 171 q 188 115 188 131 l 188 113 q 206 72 189 85 q 244 60 222 60 q 258 61 254 60 q 370 99 318 72 q 463 151 422 125 q 531 198 504 178 q 567 218 557 218 l 568 218 q 576 211 576 218 q 538 167 576 197 q 447 106 500 138 q 337 51 393 75 q 243 28 281 28 q 179 49 203 29 q 153 104 156 69 q 152 116 153 111 q 149 121 151 121 q 144 119 146 121 q 106 83 126 101 q 61 49 85 64 q 13 24 38 33 q -37 15 -12 15 z "},"b":{"ha":521,"x_min":-79,"x_max":543,"o":"m -61 26 q -74 29 -68 26 q -79 40 -79 32 q -78 49 -79 46 q -74 57 -76 53 q -24 170 -56 99 q 50 325 8 242 q 140 494 92 408 q 242 649 189 579 q 348 762 294 718 q 453 806 401 806 q 515 781 492 806 q 539 718 539 756 q 509 629 539 678 q 432 528 479 581 q 326 424 385 476 q 209 326 267 372 q 100 244 151 281 q 17 188 49 208 l -6 139 q 72 199 29 172 q 164 226 114 226 q 229 205 207 226 q 251 153 251 183 q 231 93 251 122 q 322 111 286 101 q 386 135 357 121 q 446 169 415 150 q 522 214 476 189 q 533 217 531 217 q 543 206 543 217 q 536 193 543 200 q 378 101 460 133 q 201 57 297 68 q 167 28 188 43 q 122 -1 146 13 q 74 -24 99 -15 q 31 -33 50 -33 q 4 -28 17 -33 q -8 -7 -8 -24 q 15 38 -8 21 q 69 65 38 56 q 134 80 101 75 q 186 86 167 85 q 210 120 200 101 q 219 157 219 139 q 207 185 219 174 q 165 196 194 196 q 85 169 125 196 q 13 111 46 143 q -40 53 -19 79 q -61 26 -60 26 m 26 1 q 35 -1 29 -1 q 58 4 43 -1 q 88 17 72 10 q 120 34 104 25 q 146 51 136 43 q 80 38 114 47 q 26 1 46 29 m 453 775 q 375 744 415 775 q 294 664 335 713 q 214 555 253 615 q 142 435 175 494 q 84 324 110 375 q 43 243 58 274 q 115 294 69 261 q 211 369 160 328 q 315 458 263 411 q 411 552 368 506 q 481 642 454 599 q 508 718 508 685 q 493 759 508 743 q 453 775 478 775 z "},"c":{"ha":438,"x_min":-96,"x_max":458,"o":"m 72 17 q 41 12 58 14 q 4 10 24 10 q -65 24 -33 10 q -96 79 -96 38 l -96 88 q -70 151 -93 118 q -14 210 -47 183 q 60 253 19 236 q 136 269 100 269 q 176 263 157 269 q 210 240 194 256 q 225 206 225 225 q 210 174 225 188 q 171 153 194 160 l 168 153 q 151 164 156 153 l 151 167 q 164 183 151 178 q 185 191 175 186 q 194 206 194 196 q 188 218 194 208 q 135 238 168 238 q 70 223 104 238 q 7 186 36 208 q -43 137 -22 164 q -65 85 -64 110 l -65 81 q -44 49 -65 57 q 4 42 -22 42 q 40 43 24 42 q 67 47 57 44 q 258 108 164 64 q 438 214 351 151 q 449 218 444 218 q 458 208 458 218 q 449 193 458 199 q 267 82 361 129 q 72 17 172 35 z "},"d":{"ha":563,"x_min":-96,"x_max":747,"o":"m -54 24 q -92 49 -83 26 q -96 68 -96 57 q -86 108 -96 88 q -67 142 -76 128 q -30 188 -54 163 q 25 234 -6 213 q 88 271 56 256 q 151 286 121 286 q 208 264 185 286 q 218 251 213 260 q 257 340 233 290 q 310 442 281 389 q 375 547 340 494 q 447 646 410 600 q 522 728 483 692 q 597 785 560 765 q 671 806 639 806 q 727 783 707 806 q 747 724 747 760 q 718 632 747 679 q 664 563 699 601 q 585 481 629 524 q 492 392 542 438 q 393 306 442 347 q 300 230 344 265 q 224 171 256 194 q 216 140 219 157 q 213 107 213 122 q 215 86 213 100 q 231 65 219 71 q 257 58 242 58 q 287 63 271 58 q 317 72 303 67 q 344 82 332 76 q 361 90 356 88 q 475 154 419 118 q 563 214 531 190 q 572 217 565 217 q 585 206 585 217 q 576 193 585 200 q 490 130 544 169 q 374 63 435 90 q 319 40 353 51 q 254 28 286 28 q 211 39 231 28 q 185 78 192 50 q 183 92 183 85 q 182 107 182 99 q 183 124 182 115 q 185 143 183 133 q 47 57 110 90 q -53 24 -15 24 l -54 24 m 613 758 q 538 702 576 739 q 464 619 500 665 q 394 519 428 572 q 331 413 360 465 q 278 310 301 360 q 240 224 256 261 q 307 276 268 244 q 390 347 346 308 q 481 426 435 385 q 569 508 528 468 q 642 585 610 549 q 692 649 675 621 q 717 724 717 690 q 705 762 717 747 q 669 776 693 776 q 613 758 644 776 m -42 125 q -56 100 -46 118 q -65 69 -65 82 q -53 56 -65 56 l -50 56 q 51 93 -14 56 q 196 190 117 131 q 200 211 200 201 q 188 242 200 231 q 151 253 175 253 l 149 253 q 93 240 121 251 q 40 210 65 228 q -6 169 15 192 q -42 125 -28 147 z "},"e":{"ha":471,"x_min":-74,"x_max":493,"o":"m -74 103 q -50 167 -71 138 q 1 218 -29 196 q 73 255 35 242 q 144 268 111 268 l 154 268 q 177 266 165 268 q 200 259 189 264 q 218 246 211 254 q 225 225 225 238 q 224 211 225 215 q 204 183 219 196 q 167 162 189 171 q 122 148 146 153 q 75 143 97 143 q 25 153 47 143 q -1 176 6 163 q -29 140 -18 160 q -43 100 -40 121 l -43 94 q -32 65 -43 75 q -4 51 -21 54 q 50 47 24 47 q 165 63 107 47 q 277 101 222 78 q 382 155 332 125 q 472 214 432 185 q 482 218 479 218 q 493 206 493 218 q 486 193 493 200 q 391 131 443 163 q 282 73 339 99 q 166 31 225 47 q 50 15 107 15 q -10 21 17 15 q -56 44 -39 28 q -74 93 -74 61 l -74 103 m 147 238 q 86 226 119 238 q 24 196 53 215 q 39 181 28 185 q 75 174 53 174 q 112 177 92 174 q 149 187 132 181 q 179 201 167 193 q 193 218 192 210 l 193 221 q 176 234 193 231 q 153 238 160 238 l 147 238 z "},"f":{"ha":358,"x_min":-90,"x_max":513,"o":"m -85 108 q -90 118 -90 110 q -86 131 -90 125 q -75 138 -82 138 l -72 138 q -54 132 -62 135 q -42 128 -47 129 q -33 126 -36 126 q 3 224 -21 165 q 59 350 26 283 q 131 485 92 417 q 213 613 171 554 q 300 713 256 671 q 386 769 344 756 q 422 775 403 775 q 483 754 457 775 q 513 693 510 733 l 513 689 q 485 608 513 653 q 415 515 458 563 q 316 418 371 467 q 207 326 261 369 q 103 249 153 283 q 22 192 54 214 q -3 119 7 154 q 40 115 19 117 q 79 113 60 113 q 225 139 158 113 q 358 214 292 165 q 369 218 365 218 q 382 207 382 218 q 374 193 382 200 q 229 111 301 140 q 74 82 157 82 q 34 84 54 82 q -8 89 14 86 q 26 48 11 69 q 53 3 42 26 q 92 -98 81 -51 q 103 -181 103 -144 q 72 -290 103 -251 q 4 -328 40 -328 q -42 -309 -21 -328 q -75 -253 -64 -290 q -85 -164 -85 -215 q -73 -34 -85 -101 q -47 82 -61 33 q -65 96 -56 89 q -85 108 -74 103 m 396 739 q 327 696 363 728 q 258 619 292 664 q 191 522 224 575 q 131 418 158 469 q 81 322 103 367 q 44 244 58 276 q 116 297 72 264 q 208 368 160 329 q 304 451 256 407 q 392 537 353 494 q 456 619 432 579 q 481 688 481 658 l 481 692 q 463 732 478 719 q 425 744 447 744 q 410 743 418 744 q 396 739 403 742 m -21 58 q -43 -47 -32 14 q -54 -165 -54 -107 q -52 -208 -54 -187 q -44 -244 -50 -228 q -24 -283 -37 -271 q 6 -296 -10 -296 q 50 -267 29 -296 q 71 -182 71 -237 q 60 -106 71 -149 q 25 -11 50 -62 q -21 58 6 26 z "},"g":{"ha":519,"x_min":-393,"x_max":543,"o":"m -54 24 q -86 37 -78 25 q -94 64 -94 49 q -85 106 -94 83 q -67 142 -76 128 q -28 191 -51 167 q 24 235 -4 215 q 83 269 51 256 q 149 283 115 282 l 154 283 q 203 272 181 283 q 238 236 226 261 q 239 229 239 233 q 231 215 239 219 q 224 214 228 214 q 210 222 214 214 q 185 247 201 240 q 149 253 168 253 q 93 240 121 251 q 40 210 65 228 q -6 169 15 192 q -40 125 -26 147 q -62 76 -62 93 q -40 58 -62 58 q 19 76 -17 58 q 94 123 60 96 q 161 165 128 150 q 178 169 169 169 q 199 150 199 169 q 194 135 199 143 q 166 63 182 100 q 132 -14 150 26 q 331 92 236 39 q 522 214 426 144 q 531 217 528 217 q 543 206 543 217 q 536 193 543 200 q 328 58 432 117 q 110 -60 225 0 q 56 -167 88 -106 q -12 -291 25 -229 q -87 -407 -49 -353 q -164 -492 -126 -461 q -228 -532 -196 -519 q -287 -544 -260 -544 q -364 -515 -335 -544 q -393 -442 -393 -486 q -381 -383 -393 -414 q -339 -318 -368 -351 q -260 -246 -307 -282 q -156 -174 -212 -210 q -37 -103 -100 -137 q 86 -36 25 -68 q 126 49 107 7 q 160 129 144 90 q 98 88 128 110 q 33 49 68 65 q -54 24 -19 24 m -183 -468 q -115 -392 -150 -440 q -47 -290 -81 -344 q 15 -180 -14 -235 q 64 -83 43 -125 q -49 -144 7 -112 q -154 -208 -104 -176 q -246 -274 -204 -240 q -317 -339 -287 -307 q -362 -440 -362 -393 q -342 -492 -362 -472 q -287 -512 -321 -512 q -237 -502 -264 -512 q -183 -468 -211 -492 z "},"h":{"ha":525,"x_min":-76,"x_max":547,"o":"m -46 36 q -60 25 -50 25 q -72 29 -67 25 q -76 40 -76 33 q -74 50 -76 44 q -28 158 -56 94 q 35 292 0 221 q 111 438 71 364 q 195 577 151 511 q 283 696 239 643 q 369 776 328 749 q 415 799 393 792 q 456 806 436 806 q 518 782 494 806 q 542 718 542 758 q 514 632 542 678 q 418 513 479 575 q 288 390 357 450 q 147 278 218 331 q 21 188 76 225 q 0 143 10 164 q -18 103 -10 122 q 33 141 6 121 q 90 178 61 161 q 144 205 118 194 q 192 215 171 215 q 204 214 200 215 q 236 196 228 210 q 244 163 244 182 q 236 119 244 140 q 225 83 225 94 q 239 72 225 72 q 260 76 246 72 q 328 101 293 86 q 399 133 364 115 q 466 172 433 151 q 525 214 499 193 q 536 218 532 218 q 547 207 547 218 q 540 194 547 200 q 479 150 513 172 q 410 108 446 128 q 339 72 375 88 q 268 46 303 56 q 228 39 240 39 q 192 72 192 39 q 196 99 192 83 q 207 131 200 114 q 213 147 210 138 q 215 163 215 156 q 199 185 215 181 l 194 185 q 137 166 175 185 q 60 123 99 147 q -10 74 21 99 q -46 36 -40 49 m 388 750 q 323 692 356 729 q 258 610 290 656 q 194 515 225 565 q 135 415 163 464 q 85 321 107 365 q 46 243 63 276 q 160 326 96 278 q 285 429 224 375 q 401 540 347 483 q 488 649 456 597 q 511 718 511 686 q 497 760 511 744 q 457 775 482 775 q 388 750 428 775 z "},"i":{"ha":381,"x_min":-14,"x_max":404,"o":"m 44 282 q 28 288 35 282 q 22 301 22 294 q 44 321 22 321 q 67 301 67 321 q 60 288 67 294 q 44 282 54 282 m 3 186 q -11 193 -7 186 q -14 201 -14 199 q -7 215 -14 208 q 18 225 7 225 q 33 217 28 225 q 36 204 36 214 q 31 170 36 189 q 22 140 25 151 q 20 128 21 133 q 19 117 19 124 q 25 88 19 101 q 46 68 31 75 q 78 63 58 63 q 158 81 113 63 q 247 124 203 99 q 327 174 290 149 q 383 214 364 200 q 393 218 388 218 q 404 206 404 218 q 397 192 404 199 q 336 148 375 175 q 253 95 297 121 q 162 51 208 69 q 76 32 115 32 q 33 40 53 32 q -1 73 10 51 q -11 118 -11 94 q -11 133 -11 125 q -8 147 -11 140 q -3 167 -6 156 q 3 186 -1 178 z "},"j":{"ha":342,"x_min":-571,"x_max":365,"o":"m 39 285 q 24 290 31 285 q 18 304 18 296 q 24 318 18 313 q 39 324 31 324 q 61 304 61 324 q 39 285 61 285 m -342 -489 q -406 -528 -375 -517 q -465 -540 -437 -540 q -542 -511 -512 -540 q -571 -437 -571 -482 q -558 -378 -571 -410 q -518 -315 -546 -347 q -438 -243 -486 -279 q -334 -171 -390 -207 q -215 -100 -278 -135 q -92 -33 -153 -65 q -40 78 -64 24 q 3 178 -17 132 q 0 177 1 178 q -3 176 -1 176 q -15 181 -10 176 q -19 192 -19 185 q -19 194 -19 193 q -18 196 -18 194 q -4 213 -15 204 q 17 221 7 221 l 21 221 q 39 197 39 219 q 36 181 39 189 q 31 165 33 172 q -4 82 15 126 q -46 -11 -24 38 q 153 94 58 42 q 343 217 249 147 q 353 219 346 219 q 365 208 365 219 q 358 196 365 201 q 150 61 254 119 q -68 -57 46 3 q -122 -165 -90 -103 q -191 -288 -154 -226 q -267 -404 -228 -350 q -342 -489 -306 -458 m -494 -336 q -529 -390 -518 -364 q -540 -437 -540 -415 q -519 -490 -540 -469 q -465 -510 -499 -510 q -415 -499 -442 -510 q -361 -465 -389 -489 q -294 -390 -329 -437 q -226 -287 -260 -342 q -164 -177 -193 -232 q -114 -81 -135 -122 q -226 -142 -171 -111 q -332 -206 -282 -174 q -424 -272 -382 -239 q -494 -336 -465 -304 z "},"k":{"ha":522,"x_min":-78,"x_max":546,"o":"m -47 36 q -60 25 -51 25 q -72 30 -67 25 q -78 42 -78 35 q -75 50 -78 44 q -27 164 -56 99 q 38 301 1 229 q 115 445 74 372 q 199 583 156 518 q 285 699 242 647 q 369 776 329 750 q 456 806 413 806 q 517 782 493 806 q 540 718 540 758 q 513 632 540 678 q 417 512 476 574 q 288 390 357 450 q 147 278 218 331 q 19 188 76 225 q 1 149 10 168 q -15 113 -7 129 q 2 127 -7 119 q 19 142 11 135 q 17 158 17 153 l 17 164 q 39 178 21 178 q 50 177 44 178 q 63 175 56 176 q 106 203 85 190 q 146 225 126 217 q 181 232 161 232 q 231 213 211 232 q 253 169 250 193 l 253 165 q 237 132 253 146 q 182 118 221 118 q 144 122 165 118 q 94 133 122 125 q 81 138 88 136 q 69 142 75 140 l 64 138 q 140 92 100 106 q 219 78 179 78 q 301 90 260 78 q 381 120 342 101 q 456 164 419 139 q 524 214 492 189 q 535 218 531 218 q 543 214 542 218 q 546 206 546 208 q 539 193 546 200 q 465 139 504 165 q 385 92 426 113 q 302 58 344 71 q 217 46 260 46 q 126 63 171 46 q 39 118 82 79 q 20 103 33 114 q -7 78 7 92 q -33 53 -21 65 q -47 36 -44 42 m 158 197 q 101 164 129 183 q 148 152 128 156 q 182 149 168 149 q 213 155 204 149 q 222 169 222 161 l 222 171 q 208 192 221 182 q 178 201 196 201 q 158 197 169 201 m 386 750 q 290 657 339 719 q 196 521 242 594 q 111 373 150 447 q 44 243 72 299 q 160 327 97 279 q 285 428 224 375 q 399 539 346 482 q 486 649 453 596 q 510 718 510 686 q 495 760 510 744 q 456 775 481 775 q 386 750 426 775 z "},"l":{"ha":357,"x_min":-24,"x_max":540,"o":"m 38 29 q -11 54 1 32 q -24 106 -24 76 q -14 171 -24 138 q 4 228 -4 204 q 63 363 26 289 q 145 510 100 438 q 242 647 190 583 q 343 753 293 711 q 402 788 374 776 q 456 799 431 799 q 517 777 493 799 q 540 718 540 756 q 513 632 540 678 q 459 565 494 603 q 379 485 424 526 q 285 401 335 443 q 188 319 236 358 q 98 248 140 281 q 25 193 56 215 q 14 155 19 178 q 8 110 8 132 q 15 76 8 90 q 42 58 22 61 q 47 58 44 58 q 51 57 49 57 q 124 76 81 57 q 213 120 168 94 q 297 172 257 146 q 357 214 336 199 q 368 218 364 218 q 379 207 379 218 q 372 194 379 200 q 304 145 343 174 q 222 91 265 117 q 133 47 178 65 q 50 29 89 29 l 38 29 m 363 728 q 268 631 315 689 q 179 506 221 572 q 103 371 138 439 q 44 246 68 303 q 110 297 72 267 q 192 364 149 328 q 281 439 236 400 q 366 515 326 478 q 438 588 406 553 q 486 649 469 622 q 510 718 510 688 q 495 755 510 742 q 457 768 481 768 q 413 758 438 768 q 363 728 389 749 z "},"m":{"ha":713,"x_min":-67,"x_max":736,"o":"m -28 86 q -35 50 -35 58 q -29 39 -35 39 q 3 63 -19 39 q 53 117 26 88 q 108 170 81 146 q 154 194 135 194 q 161 193 158 194 q 175 171 175 189 q 169 144 175 160 q 162 117 165 132 q 157 90 158 103 l 157 85 q 160 79 157 79 q 168 83 163 79 q 178 92 174 88 q 225 140 194 108 q 290 204 256 172 q 357 260 324 236 q 413 283 390 283 q 422 282 419 283 q 439 258 439 278 q 438 247 439 253 q 433 235 436 242 q 407 174 422 203 q 382 113 392 144 q 378 89 378 99 q 399 60 378 64 q 413 58 403 58 q 485 78 442 58 q 574 123 529 97 q 657 174 618 149 q 715 214 696 200 q 724 217 718 217 q 733 211 729 217 q 736 206 736 208 q 726 193 736 200 q 658 144 697 172 q 576 90 619 115 q 490 47 533 64 q 407 29 446 29 l 396 29 q 360 43 374 32 q 346 81 346 54 q 353 121 346 96 q 378 183 363 154 q 404 244 393 213 l 404 246 q 399 250 404 250 q 388 247 393 250 q 330 200 364 233 q 262 132 296 167 q 199 70 228 97 q 154 42 169 43 l 151 42 q 131 53 136 42 q 125 81 125 65 q 126 88 125 83 q 126 94 126 92 q 139 149 128 121 q 140 154 140 151 q 139 156 140 156 l 138 154 q 135 153 138 154 q 99 117 124 143 q 46 65 74 92 q -6 18 18 39 q -40 -3 -31 -3 q -61 12 -56 0 q -67 39 -67 24 q -64 69 -67 54 q -58 94 -61 85 q -35 156 -50 124 q -1 215 -21 189 q 13 222 6 222 q 21 219 15 222 q 26 207 26 215 q 24 197 26 200 q -7 144 7 174 q -28 86 -21 114 z "},"n":{"ha":561,"x_min":-24,"x_max":583,"o":"m -1 42 q -24 83 -24 42 q -24 96 -24 90 q -22 108 -24 101 q -13 159 -19 131 q 0 207 -7 188 q 14 218 4 218 q 17 217 15 218 q 19 217 18 217 q 31 203 31 213 q 30 200 31 201 q 29 197 29 199 q 24 179 28 192 q 17 153 19 167 q 11 125 14 139 q 8 101 8 111 q 14 88 8 88 l 15 88 q 52 117 25 88 q 114 181 79 146 q 185 244 149 215 q 249 274 222 274 q 263 271 254 274 q 283 238 283 261 q 281 218 283 229 q 272 193 279 207 q 252 151 263 172 q 235 107 242 129 q 233 97 233 101 q 232 89 232 93 q 247 68 232 72 q 253 67 250 68 q 258 67 256 67 q 314 78 281 67 q 388 108 347 89 q 472 155 428 128 q 561 214 517 182 q 569 217 564 217 q 581 211 576 217 q 583 204 583 208 q 576 193 583 200 q 392 78 475 118 q 260 38 308 38 q 240 39 246 38 q 200 85 200 50 q 201 99 200 92 q 206 115 203 107 q 223 160 213 139 q 244 206 233 182 q 254 236 254 226 q 251 242 254 242 q 246 243 250 243 q 213 228 233 243 q 169 192 193 214 q 120 144 146 169 q 72 95 94 118 q 30 58 49 72 q 1 42 11 43 l -1 42 z "},"o":{"ha":435,"x_min":-25,"x_max":457,"o":"m 117 44 q 46 18 82 18 q -5 37 15 18 q -25 89 -25 56 l -25 97 q -1 153 -24 126 q -8 185 -8 171 q 24 250 -8 222 q 100 278 56 278 q 113 277 107 278 q 126 275 119 276 q 178 245 161 268 q 196 190 196 222 q 178 121 196 157 q 322 150 251 125 q 436 214 392 175 q 444 218 440 218 q 454 213 450 218 q 457 204 457 210 q 451 193 457 197 q 390 153 425 171 q 317 121 356 135 q 237 99 278 107 q 158 89 196 90 q 138 64 149 75 q 117 44 128 53 m 119 244 q 100 247 106 247 q 46 228 68 247 q 24 186 24 210 q 28 165 24 176 q 66 134 35 146 q 142 121 97 122 q 158 154 151 136 q 165 190 165 172 q 155 224 165 210 q 119 244 144 238 m 6 89 q 17 60 6 69 q 47 50 29 50 q 97 69 74 50 q 119 90 108 76 q 18 126 50 97 q 6 94 8 117 l 6 89 z "},"p":{"ha":503,"x_min":-228,"x_max":525,"o":"m -228 -342 q -226 -332 -228 -339 q -220 -317 -224 -325 q -214 -302 -217 -308 q -210 -293 -211 -296 q -100 -17 -151 -142 q 0 215 -49 107 q 14 224 4 224 q 21 222 18 224 q 28 217 26 221 q 31 208 31 213 q 29 203 31 204 q 17 175 25 194 q -4 126 8 156 q 83 224 39 189 q 168 261 128 260 l 172 261 q 238 238 214 261 q 263 182 263 215 q 250 133 263 158 q 322 137 290 133 q 381 149 353 140 q 439 174 410 158 q 503 214 468 189 q 513 218 507 218 q 525 204 525 218 q 518 193 525 197 q 446 147 476 164 q 385 119 415 129 q 317 106 354 110 q 226 103 281 103 q 139 36 190 63 q 92 18 113 24 q 56 13 71 13 q 24 21 35 13 q 14 42 14 29 q 29 76 14 57 q 75 110 44 94 q 142 128 107 125 q 213 133 178 132 q 232 182 232 157 q 216 217 232 203 q 172 231 200 231 l 169 231 q 83 182 132 229 q -6 63 33 135 q -108 -140 -60 -37 q -197 -347 -157 -242 q -212 -357 -201 -357 q -223 -353 -218 -357 q -228 -342 -228 -349 m 125 64 q 181 100 154 79 q 133 94 156 99 q 92 83 110 90 q 62 67 74 76 q 49 50 50 58 l 49 49 q 58 43 49 43 q 125 64 82 43 z "},"q":{"ha":451,"x_min":-99,"x_max":475,"o":"m -57 24 q -90 38 -81 25 q -99 68 -99 50 q -94 93 -99 81 q -58 161 -85 128 q 1 222 -32 194 q 73 265 35 249 q 144 283 111 282 l 150 283 q 235 236 211 283 q 236 229 236 233 q 228 215 236 219 q 221 214 225 214 q 207 222 211 214 q 150 253 192 253 l 146 253 q 83 236 117 251 q 20 197 50 221 q -33 142 -10 172 q -64 83 -56 113 q -67 75 -65 79 q -68 67 -68 71 q -56 56 -68 56 l -51 56 q 13 74 -22 56 q 80 115 47 93 q 140 155 113 136 q 179 174 167 174 l 183 174 q 196 156 196 168 q 192 140 196 149 l 146 36 q 324 108 244 63 q 450 211 404 153 q 463 218 456 218 q 471 215 468 218 q 475 208 475 214 q 469 194 475 203 q 326 76 415 128 q 132 1 236 25 q 123 -19 128 -10 q 114 -40 118 -29 q 144 -124 135 -75 q 154 -228 154 -174 q 145 -335 154 -282 q 119 -429 136 -387 q 76 -497 101 -471 q 19 -522 51 -522 l 18 -522 q -13 -501 -1 -522 q -25 -436 -25 -481 q -2 -285 -25 -381 q 79 -44 21 -189 q 43 -10 65 -24 q 36 4 36 -6 q 38 11 36 8 q 50 18 42 18 q 80 23 65 21 q 110 28 94 25 q 131 78 121 53 q 153 129 142 104 q 145 122 149 126 q 138 115 142 118 q 97 88 121 103 q 48 58 74 72 q -4 33 22 43 q -53 24 -31 24 l -57 24 m 89 -7 l 93 -11 l 94 -7 l 89 -7 m 25 -487 q 69 -463 50 -486 q 99 -404 88 -440 q 117 -324 111 -368 q 122 -235 122 -279 q 116 -144 122 -186 q 99 -78 110 -103 q 22 -303 44 -217 q 0 -435 0 -390 q 24 -487 0 -487 l 25 -487 z "},"r":{"ha":447,"x_min":-37,"x_max":465,"o":"m 49 181 q -22 217 0 190 q -37 261 -37 236 q -11 314 -37 294 q 29 329 11 329 q 61 316 49 329 q 74 282 74 303 q 65 249 74 268 q 42 214 57 231 q 53 211 47 213 q 67 208 58 210 q 87 203 79 206 q 94 190 94 200 l 94 186 q 91 172 92 179 q 88 156 90 165 q 83 135 85 144 q 82 117 82 125 q 108 68 82 82 q 133 64 119 64 q 265 104 182 64 q 444 214 349 144 q 454 218 451 218 q 463 213 458 218 q 465 204 465 210 q 458 193 465 197 q 400 151 438 178 q 318 97 363 124 q 226 51 274 71 q 139 32 179 32 q 96 40 115 32 q 51 117 51 61 q 57 163 51 140 q 58 169 58 165 q 49 181 58 179 m 7 289 q -6 263 -6 279 q 13 228 -6 242 q 26 244 19 235 q 38 263 32 253 q 42 281 42 274 q 28 297 42 297 q 7 289 19 297 z "},"s":{"ha":357,"x_min":-87,"x_max":381,"o":"m 19 -21 q -15 -25 3 -25 q -66 -13 -44 -25 q -87 17 -87 -1 q -87 20 -87 19 q -86 24 -86 21 q -67 59 -82 46 q -31 80 -51 72 q 10 91 -11 88 q 50 96 32 94 q 37 126 46 108 q 19 162 28 143 q 5 199 11 181 q -1 232 -1 217 q 4 253 -1 242 q 21 271 10 264 q 43 278 32 278 q 48 277 46 278 q 53 276 50 276 q 65 261 65 274 l 65 258 q 50 246 63 246 l 44 246 q 31 238 35 246 q 29 231 29 236 q 36 203 29 221 q 52 165 43 185 q 69 128 61 146 q 82 100 78 110 q 233 140 167 113 q 358 214 300 168 q 368 217 361 217 q 381 206 381 217 q 372 192 381 199 q 239 112 307 142 q 90 71 171 82 q 92 54 92 65 q 19 -21 92 -4 m -47 29 q -49 22 -49 26 q -37 10 -49 13 q -14 7 -26 7 q 11 8 6 7 q 61 54 61 21 q 60 67 61 63 q -47 29 -33 54 z "},"t":{"ha":356,"x_min":-236,"x_max":554,"o":"m -219 372 q -231 375 -226 372 q -236 383 -236 378 l -236 385 q -222 396 -236 396 q -69 406 -147 401 q 88 413 8 410 q 185 571 135 499 q 285 695 236 643 q 378 776 333 747 q 458 804 424 804 q 521 751 514 804 l 521 742 q 494 656 521 703 q 429 563 467 608 q 352 480 392 518 q 289 418 313 442 l 371 418 q 460 418 418 418 q 539 417 501 418 q 554 404 554 414 q 542 393 554 393 l 539 393 q 447 394 494 394 q 349 394 400 394 l 263 394 q 142 288 203 339 q 24 193 82 236 q 10 144 15 167 q 6 106 6 122 q 6 94 6 99 q 8 86 7 90 q 50 58 17 58 q 131 79 83 58 q 224 127 178 100 q 308 180 271 154 q 356 214 344 206 q 364 218 360 218 q 375 213 369 218 q 378 204 378 207 q 371 192 378 199 q 315 152 354 179 q 230 97 276 125 q 134 47 183 68 q 47 26 85 26 q 3 38 22 26 q -22 78 -15 50 q -24 91 -24 85 q -25 104 -25 97 q -14 176 -25 136 q 13 255 -3 215 q 46 330 29 294 q 75 389 63 365 q -74 382 0 386 q -219 372 -149 378 m 458 774 q 390 746 429 774 q 305 669 350 718 q 213 556 260 621 q 124 414 165 490 q 183 416 154 415 q 242 417 213 417 q 310 482 268 442 q 391 568 351 522 q 460 660 431 614 q 489 740 489 706 l 489 749 q 458 774 488 774 m 111 390 q 74 317 92 353 q 43 247 57 281 q 129 316 86 279 q 215 393 172 353 q 163 392 189 392 q 111 390 138 392 z "},"u":{"ha":557,"x_min":-86,"x_max":578,"o":"m -33 26 q -74 43 -61 26 q -86 83 -86 60 q -75 132 -86 107 q -42 179 -62 156 q -1 219 -22 203 q 7 222 1 222 q 19 217 15 222 q 22 207 22 214 q 17 196 22 200 q -19 160 -1 181 q -46 118 -36 139 q -56 83 -56 101 q -51 65 -56 72 q -32 57 -46 58 l -29 57 q 20 76 -8 57 q 76 119 49 94 q 126 166 104 143 q 154 196 147 189 q 191 234 175 219 q 218 249 207 249 l 221 249 q 231 239 228 246 q 235 224 235 232 q 233 208 235 215 q 231 196 232 200 q 219 152 226 181 q 211 100 211 124 q 217 70 211 82 q 243 57 224 58 l 247 57 q 322 76 278 57 q 410 119 365 94 q 494 171 454 144 q 557 214 535 197 q 567 217 560 217 q 578 206 578 217 q 571 193 578 199 q 504 145 544 174 q 419 90 464 117 q 328 45 374 64 q 247 26 283 26 l 242 26 q 191 49 204 28 q 178 97 178 69 q 181 135 178 117 q 189 171 185 154 q 190 181 190 175 q 189 185 190 185 q 176 175 186 185 q 142 139 167 164 q 88 89 118 114 q 26 45 58 64 q -33 26 -7 26 z "},"v":{"ha":332,"x_min":-46,"x_max":278,"o":"m -18 -14 q -39 -6 -33 -14 q -46 18 -44 3 l -46 24 q -41 63 -46 40 q -29 108 -36 85 q -15 155 -22 132 q -4 196 -8 178 q -3 204 -3 199 l -3 214 q 6 224 0 222 q 13 225 8 225 q 26 217 22 225 q 28 208 28 215 q 23 177 28 197 q 12 135 18 157 q -1 95 6 114 q -8 65 -7 76 q -15 24 -15 33 q -11 15 -15 15 q 32 50 -3 15 q 82 109 53 72 q 142 183 111 146 q 203 249 172 219 q 258 283 233 278 q 260 284 260 283 q 263 285 261 285 q 276 272 274 285 q 277 270 276 271 q 278 268 278 269 q 265 254 278 257 q 224 228 246 250 q 177 178 201 207 q 127 115 153 149 q 77 54 101 82 q 29 7 53 26 q -15 -14 6 -12 l -18 -14 z "},"w":{"ha":494,"x_min":-35,"x_max":433,"o":"m -35 54 q -30 90 -35 67 q -19 138 -25 114 q -7 181 -12 163 q -1 203 -1 200 q -3 210 -3 206 q -1 218 -3 214 q 6 224 1 222 q 13 225 8 225 q 26 217 22 225 q 28 207 28 214 q 24 176 28 194 q 14 138 19 157 q 3 100 8 118 q -3 71 -1 82 l -3 63 q 0 53 -3 53 q 8 57 3 53 q 18 67 13 61 q 53 108 33 82 q 92 163 72 135 q 127 216 111 192 q 153 251 143 240 q 164 257 158 257 l 167 257 q 182 240 181 257 l 182 233 q 176 192 182 219 q 165 134 171 164 q 153 76 158 104 q 146 32 147 49 q 144 15 144 25 q 149 7 144 7 q 157 10 153 7 q 221 72 189 29 q 285 159 253 114 q 349 240 317 204 q 414 283 382 276 q 416 284 415 283 q 418 285 417 285 q 433 272 428 285 l 433 269 q 421 254 433 257 q 381 228 403 250 q 334 174 358 206 q 285 108 310 143 q 235 44 260 74 q 187 -6 210 14 q 143 -28 164 -26 l 140 -28 q 114 8 117 -28 l 114 17 q 122 85 114 44 q 138 161 131 125 q 139 172 139 165 q 138 175 139 175 q 131 167 138 175 q 101 122 118 147 q 67 75 85 97 q 31 38 49 53 q -3 21 13 22 l -6 21 q -35 53 -32 21 l -35 54 z "},"x":{"ha":467,"x_min":-65,"x_max":490,"o":"m -51 10 q -65 25 -65 13 l -65 28 q -60 38 -65 35 q -49 42 -56 42 l -46 42 q 0 63 -28 42 q 60 115 28 85 q 51 134 57 122 q 39 158 46 146 q 25 180 32 171 q 13 189 18 189 q -3 204 -3 189 q 13 221 -3 221 q 38 212 26 221 q 57 190 49 203 q 72 163 65 176 q 83 138 78 149 q 120 173 99 151 q 167 215 142 194 q 217 251 192 236 q 263 268 242 267 q 274 265 269 268 q 279 254 279 261 q 264 238 279 238 q 226 221 249 236 q 178 185 203 206 q 133 143 154 164 q 99 110 111 122 q 124 74 110 89 q 158 60 139 60 q 232 78 189 60 q 319 121 275 96 q 402 172 363 146 q 467 217 442 199 q 476 219 469 219 q 488 214 483 219 q 490 207 490 211 q 483 194 490 201 q 415 147 457 175 q 328 92 374 118 q 238 48 283 67 q 160 29 193 29 l 157 29 q 109 47 128 29 q 75 88 90 64 q 9 33 40 56 q -46 10 -22 10 l -51 10 z "},"y":{"ha":528,"x_min":-383,"x_max":553,"o":"m -49 21 q -78 31 -67 21 q -92 67 -89 42 l -92 71 q -82 113 -92 92 q -58 156 -72 135 q -28 194 -44 176 q 4 224 -11 211 q 14 226 10 226 q 26 221 22 226 q 29 211 29 218 q 24 199 29 203 q -2 174 13 189 q -29 142 -17 160 q -51 106 -42 125 q -60 71 -60 88 l -60 68 q -49 53 -60 53 l -46 53 q -6 67 -29 54 q 44 97 18 79 q 97 136 71 115 q 144 174 124 157 q 174 197 163 188 q 193 210 186 207 q 213 214 206 214 q 226 194 226 214 l 226 188 q 222 169 225 181 q 213 143 218 158 q 179 68 197 107 q 142 -12 161 29 q 341 93 246 40 q 529 214 436 146 q 539 217 532 217 q 551 211 547 217 q 553 204 553 208 q 546 193 553 197 q 338 58 442 117 q 119 -58 233 0 q 69 -158 96 -108 q 15 -256 43 -208 q -33 -332 -1 -283 q -104 -428 -64 -381 q -190 -512 -144 -476 q -282 -547 -236 -547 q -289 -547 -285 -547 q -296 -546 -293 -546 q -363 -511 -343 -539 q -383 -447 -383 -483 q -369 -379 -383 -414 q -332 -318 -356 -344 q -252 -245 -300 -282 q -147 -172 -204 -208 q -28 -102 -90 -136 q 97 -36 35 -68 q 178 142 144 61 q 183 161 183 154 q 182 163 183 163 q 175 159 179 163 q 164 150 171 156 q 114 110 142 132 q 58 69 86 89 q 3 36 29 50 q -44 21 -24 22 l -49 21 m -12 -240 q 31 -163 10 -203 q 74 -83 53 -124 q -40 -144 17 -112 q -146 -208 -96 -176 q -237 -274 -196 -240 q -308 -339 -279 -307 q -340 -390 -326 -360 q -353 -449 -353 -421 q -338 -493 -353 -475 q -287 -514 -324 -511 l -283 -514 q -202 -479 -244 -514 q -122 -399 -160 -444 q -54 -308 -83 -353 q -12 -240 -25 -262 z "},"z":{"ha":483,"x_min":-308,"x_max":506,"o":"m -37 -6 q -57 10 -57 -6 q -49 31 -57 21 q -8 72 -33 50 q 44 116 17 94 q 100 157 72 138 q 149 190 128 176 q 119 193 133 192 q 90 197 104 194 q 69 200 79 199 q 51 201 60 201 q 15 190 28 201 q 4 186 11 186 q -7 192 -3 186 q -11 203 -11 196 q -6 214 -11 210 q 20 228 7 225 q 49 232 33 232 q 96 228 71 232 q 124 224 110 225 q 154 222 139 222 q 167 222 161 222 q 181 224 174 222 q 194 227 183 225 q 217 229 206 229 q 229 228 226 229 q 238 217 238 224 q 228 203 238 208 q 108 122 167 163 q -6 32 49 82 l -8 28 q -1 25 -8 25 q 50 13 25 22 q 92 -18 75 4 q 292 92 190 36 q 483 214 393 147 q 493 217 486 217 q 504 211 500 217 q 506 204 506 208 q 499 192 506 199 q 307 67 407 125 q 107 -44 207 10 q 115 -94 115 -68 q 92 -194 115 -142 q 35 -294 69 -246 q -39 -382 1 -343 q -112 -442 -79 -421 q -165 -466 -140 -458 q -210 -474 -189 -474 q -281 -445 -254 -474 q -308 -372 -308 -417 q -296 -313 -308 -344 q -256 -250 -283 -282 q -200 -199 -233 -225 q -125 -145 -167 -172 q -35 -90 -83 -118 q 64 -33 13 -62 q 24 -10 49 -15 q -24 -6 0 -6 l -37 -6 m -128 -415 q -60 -360 -97 -397 q 10 -278 -22 -324 q 64 -185 42 -233 q 86 -94 86 -136 q 85 -76 86 -85 q 81 -60 83 -68 q -106 -169 -21 -117 q -232 -271 -190 -222 q -266 -323 -256 -297 q -276 -372 -276 -349 q -258 -423 -276 -403 q -208 -443 -240 -443 q -128 -415 -174 -443 z "},"":{"ha":797,"x_min":-107,"x_max":936,"o":"m -89 374 q -107 385 -107 374 l -107 388 q -92 397 -107 397 q 88 406 -7 401 q 141 500 111 450 q 206 599 171 550 q 277 691 240 647 q 351 765 314 735 q 413 801 383 790 q 467 813 442 813 q 526 791 503 813 q 550 733 550 769 q 543 692 550 714 q 521 646 536 669 q 475 585 503 617 q 416 524 447 554 q 353 466 385 494 q 294 414 322 438 q 411 417 353 415 q 528 418 469 418 q 614 560 565 492 q 726 681 663 629 q 789 719 758 707 q 844 732 819 732 q 897 713 876 732 q 917 660 917 694 q 881 556 917 617 q 757 419 844 494 q 837 419 797 419 q 915 418 876 418 q 936 406 936 415 q 917 394 933 394 l 914 394 q 823 396 869 396 q 728 396 776 396 q 606 299 672 350 q 467 194 540 249 q 456 158 463 182 q 450 110 450 133 q 456 78 450 92 q 478 61 461 64 q 493 60 482 60 q 569 78 525 60 q 657 122 613 97 q 740 174 701 147 q 800 215 779 200 q 810 219 804 219 q 819 214 815 219 q 822 207 822 208 q 815 196 822 203 q 751 149 790 178 q 667 94 711 121 q 578 48 624 67 q 494 29 532 29 q 471 32 485 29 q 430 60 440 39 q 419 108 419 82 q 426 164 419 136 q 366 123 400 144 q 295 81 332 101 q 220 42 258 60 q 147 14 182 25 q 108 4 129 8 q 68 0 88 0 q 13 14 38 0 q -21 67 -12 28 q -24 81 -24 74 q -24 99 -24 89 q -17 156 -24 124 q 6 229 -10 189 q 74 382 31 299 q -89 374 -10 378 m 746 657 q 643 548 688 610 q 563 419 599 486 l 708 419 q 842 561 803 499 q 882 660 882 624 q 842 701 882 701 q 798 691 822 701 q 746 657 774 681 m 551 396 q 517 322 532 360 q 486 247 501 285 q 588 324 539 288 q 679 396 636 361 l 551 396 m 517 394 q 392 392 454 393 q 267 389 329 392 q 147 288 208 339 q 26 193 86 238 q 7 97 7 132 q 10 74 7 88 q 32 40 15 49 q 71 31 49 31 q 106 35 88 31 q 138 43 124 39 q 222 77 178 56 q 308 124 267 99 q 385 173 350 149 q 440 215 419 197 l 442 215 q 517 394 474 307 m 371 740 q 301 671 336 711 q 235 586 267 631 q 174 495 203 542 q 124 407 146 449 q 184 410 154 410 q 246 413 214 411 q 310 468 275 438 q 380 531 346 499 q 444 597 414 564 q 494 661 475 631 q 519 732 519 703 q 505 768 519 756 q 467 781 490 781 q 421 771 446 781 q 371 740 396 761 m 110 383 q 75 314 90 347 q 46 249 60 281 q 132 316 89 281 q 217 388 175 351 q 163 385 189 386 q 110 383 138 385 z "}}}
